<?xml version="1.0" ?><!DOCTYPE svg  PUBLIC '-//W3C//DTD SVG 1.1//EN'  'http://www.w3.org/Graphics/SVG/1.1/DTD/svg11.dtd'><svg enable-background="new 0 0 64 64" height="64px" id="icons" version="1.1" viewBox="0 0 64 64" width="64px" xml:space="preserve" xmlns="http://www.w3.org/2000/svg" xmlns:xlink="http://www.w3.org/1999/xlink"><g><g><path d="M31.995,25.513c-0.553,0-1-0.447-1-1v-3.068c0-0.553,0.447-1,1-1s1,0.447,1,1v3.068    C32.995,25.065,32.548,25.513,31.995,25.513z" fill="#656D78"/></g><path d="M35,5.5c1.1,0,2,0.9,2,2v1.32c-1.13-0.21-2.3-0.32-3.5-0.32c-1.561,0-3.07,0.18-4.5,0.52V5.5H35z" fill="#DA4453"/><path d="M38.76,9.229C37.64,11.05,37,13.2,37,15.5s0.64,4.45,1.76,6.28c-1.66,0.47-3.42,0.72-5.26,0.72   c-6.13,0-11.48-2.8-14.51-7c2.26-3.13,5.81-5.49,10.01-6.48c1.43-0.34,2.939-0.52,4.5-0.52c1.2,0,2.37,0.11,3.5,0.32   C37.6,8.92,38.189,9.06,38.76,9.229z" fill="#ED5565"/><path d="M14.99,11.5c2.21,0,4,1.79,4,4s-1.79,4-4,4V11.5z" fill="#DA4453"/><path d="M38.76,9.229c3.86,1.08,7.12,3.33,9.23,6.271c-2.11,2.939-5.37,5.189-9.23,6.28   C37.64,19.95,37,17.8,37,15.5S37.64,11.05,38.76,9.229z" fill="#E6E9ED"/><g><path d="M41.024,15.514c-0.553,0-1.005-0.447-1.005-1s0.442-1,0.994-1h0.011c0.552,0,1,0.447,1,1    S41.576,15.514,41.024,15.514z" fill="#CCD1D9"/></g><polygon fill="#E6E9ED" points="9,33.519 9,48.499 9,53.499 9,54.499 9,57.499 28,57.499 28,48.499 28,38.499 36,38.499 36,48.499    36,57.499 55,57.499 55.01,57.499 55.01,53.299 55.01,33.519  "/><polygon fill="#656D78" points="57.01,30.519 57.01,33.519 55.01,33.519 9,33.519 7,33.519 7,30.519  "/><polygon fill="#E6E9ED" points="55.01,25.52 55.01,27.519 9,27.519 9,25.52 32,24.519  "/><path d="M59,55.5c0-1.11,0.899-2,2-2c1.109,0,2,0.56,2,2v3h-7.99v-4.2c0.1-1.02,0.96-1.8,1.99-1.8   c1.109,0,2,0.89,2,2V55.5z" fill="#A0D468"/><rect fill="#5D9CEC" height="10" width="8" x="28" y="38.499"/><rect fill="#5D9CEC" height="9" width="8" x="28" y="48.499"/><polygon fill="#545C66" points="9,27.519 55.01,27.519 57.01,30.519 7,30.519  "/><path d="M9,55.5v3H1v-3c0-1.11,0.899-2,2-2c1.109,0,2,0.89,2,2v-1c0-1.11,0.899-2,2-2c1.109,0,2,0.89,2,2V55.5z" fill="#A0D468"/><g><g><path d="M36,57.997h-8c-0.276,0-0.5-0.224-0.5-0.5V38.495c0-0.276,0.224-0.5,0.5-0.5h8c0.276,0,0.5,0.224,0.5,0.5     v19.002C36.5,57.773,36.276,57.997,36,57.997z M28.5,56.997h7V38.995h-7V56.997z" fill="#FFFFFF"/></g></g><g><path d="M54.994,58.497H8.998c-0.553,0-1-0.447-1-1s0.447-1,1-1h45.996c0.553,0,1,0.447,1,1S55.547,58.497,54.994,58.497z"/></g><g><path d="M54.003,26.514H9.997c-0.553,0-1-0.447-1-1s0.447-1,1-1h44.006c0.553,0,1,0.447,1,1    S54.556,26.514,54.003,26.514z" fill="#E6E9ED"/></g><g><path d="M56.003,34.513H7.997c-0.553,0-1-0.447-1-1s0.447-1,1-1h48.006c0.553,0,1,0.447,1,1    S56.556,34.513,56.003,34.513z" fill="#656D78"/></g><g><g><path d="M35.994,48.995H28c-0.276,0-0.5-0.224-0.5-0.5s0.224-0.5,0.5-0.5h7.994c0.276,0,0.5,0.224,0.5,0.5     S36.271,48.995,35.994,48.995z" fill="#FFFFFF"/></g></g><g><path d="M63,58.491H1c-0.553,0-1-0.447-1-1s0.447-1,1-1h62c0.553,0,1,0.447,1,1S63.553,58.491,63,58.491z" fill="#656D78"/></g><g><path d="M52,45.499v3h-3v-3.771c0.54,0.49,1.229,0.771,2,0.771H52z" fill="#545C66"/><path d="M40,45.499c0.77,0,1.47-0.28,2-0.771v3.771h-3v-3H40z" fill="#545C66"/><path d="M52,38.499v7h-1c-0.771,0-1.46-0.28-2-0.771c-0.61-0.54-1-1.34-1-2.229v-4H52z" fill="#656D78"/><path d="M42,44.729c-0.53,0.49-1.23,0.771-2,0.771h-1v-7h4v4C43,43.389,42.62,44.188,42,44.729z" fill="#656D78"/><path d="M49,44.729v3.771h-7v-3.771c0.62-0.54,1-1.34,1-2.229v-4h5v4C48,43.389,48.39,44.188,49,44.729z" fill="#5D9CEC"/><path d="M42.002,38.495v4.002c0,1.103-0.897,2-2,2h-1c-0.188,0-0.353,0.065-0.502,0.154v1.691    c0.149,0.089,0.314,0.154,0.502,0.154h1c2.206,0,4-1.794,4-4v-4.002c0-0.187-0.064-0.351-0.153-0.5h-1.693    C42.066,38.145,42.002,38.309,42.002,38.495z" fill="#656D78"/><path d="M49,38.495v4.002c0,1.103,0.897,2,2,2h1c0.188,0,0.353,0.065,0.502,0.154v1.691    c-0.149,0.089-0.314,0.154-0.502,0.154h-1c-2.206,0-4-1.794-4-4v-4.002c0-0.187,0.064-0.351,0.153-0.5h1.693    C48.936,38.145,49,38.309,49,38.495z" fill="#656D78"/><g><g><path d="M52.002,49.001H39c-0.276,0-0.5-0.224-0.5-0.5V38.495c0-0.276,0.224-0.5,0.5-0.5h13.002      c0.276,0,0.5,0.224,0.5,0.5v10.006C52.502,48.777,52.278,49.001,52.002,49.001z M39.5,48.001h12.002v-9.006H39.5V48.001z" fill="#FFFFFF"/></g></g></g><g><path d="M25,45.499v3h-3v-3.771c0.54,0.49,1.229,0.771,2,0.771H25z" fill="#545C66"/><path d="M13,45.499c0.77,0,1.47-0.28,2-0.771v3.771h-3v-3H13z" fill="#545C66"/><path d="M25,38.499v7h-1c-0.771,0-1.46-0.28-2-0.771c-0.61-0.54-1-1.34-1-2.229v-4H25z" fill="#656D78"/><path d="M15,44.729c-0.53,0.49-1.23,0.771-2,0.771h-1v-7h4v4C16,43.389,15.62,44.188,15,44.729z" fill="#656D78"/><path d="M22,44.729v3.771h-7v-3.771c0.62-0.54,1-1.34,1-2.229v-4h5v4C21,43.389,21.39,44.188,22,44.729z" fill="#5D9CEC"/><path d="M15.002,38.495v4.002c0,1.103-0.897,2-2,2h-1c-0.188,0-0.353,0.065-0.502,0.154v1.691    c0.149,0.089,0.314,0.154,0.502,0.154h1c2.206,0,4-1.794,4-4v-4.002c0-0.187-0.064-0.351-0.153-0.5h-1.693    C15.066,38.145,15.002,38.309,15.002,38.495z" fill="#656D78"/><path d="M22,38.495v4.002c0,1.103,0.897,2,2,2h1c0.188,0,0.353,0.065,0.502,0.154v1.691    c-0.149,0.089-0.314,0.154-0.502,0.154h-1c-2.206,0-4-1.794-4-4v-4.002c0-0.187,0.064-0.351,0.153-0.5h1.693    C21.936,38.145,22,38.309,22,38.495z" fill="#656D78"/><g><g><path d="M25.002,49.001H12c-0.276,0-0.5-0.224-0.5-0.5V38.495c0-0.276,0.224-0.5,0.5-0.5h13.002      c0.276,0,0.5,0.224,0.5,0.5v10.006C25.502,48.777,25.278,49.001,25.002,49.001z M12.5,48.001h12.002v-9.006H12.5V48.001z" fill="#FFFFFF"/></g></g></g></g></svg>